<?xml version="1.0" standalone="no"?>
<!DOCTYPE svg PUBLIC "-//W3C//DTD SVG 20010904//EN"
 "http://www.w3.org/TR/2001/REC-SVG-20010904/DTD/svg10.dtd">
<svg version="1.0" xmlns="http://www.w3.org/2000/svg"
 width="1254.000000pt" height="1254.000000pt" viewBox="0 0 1254.000000 1254.000000"
 preserveAspectRatio="xMidYMid meet">

<g transform="translate(0.000000,1254.000000) scale(0.100000,-0.100000)"
fill="#000000" stroke="none">
<path d="M8125 10589 c-441 -335 -668 -620 -731 -919 -14 -67 -19 -253 -8
-309 6 -29 10 -32 33 -26 40 9 186 80 237 116 72 49 183 158 226 222 49 72 87
161 128 302 18 61 62 184 97 275 67 171 153 408 153 422 0 17 -18 5 -135 -83z"/>
<path d="M8381 10257 l-174 -112 -33 -122 -32 -122 72 -76 71 -77 74 159 c41
87 105 223 142 303 70 148 75 161 62 159 -5 0 -86 -51 -182 -112z"/>
<path d="M6160 10132 c-28 -13 -37 -25 -44 -58 l-9 -41 -169 -84 c-93 -46
-164 -85 -159 -87 5 -2 27 5 48 16 21 11 96 43 167 71 114 47 130 51 145 37
38 -34 114 -24 138 19 8 13 17 12 72 -10 56 -21 62 -22 47 -6 -10 10 -37 29
-60 42 -30 16 -47 33 -56 57 -8 23 -22 38 -46 48 -41 17 -32 17 -74 -4z"/>
<path d="M6702 10119 c-90 -8 -287 -44 -324 -58 l-23 -9 25 -10 c87 -35 196
-85 208 -95 8 -6 29 -10 48 -9 42 3 85 -18 117 -59 l24 -31 257 7 257 8 33 71
c19 39 46 90 60 113 l26 42 -52 10 c-151 30 -459 39 -656 20z"/>
<path d="M5554 9875 c-33 -17 -64 -62 -64 -93 0 -14 -10 -24 -32 -31 -179 -55
-322 -99 -417 -127 l-114 -33 -29 24 c-44 37 -101 30 -138 -16 -15 -19 -17
-19 -124 1 -59 12 -110 19 -113 17 -2 -3 48 -17 111 -32 109 -25 116 -28 116
-51 0 -33 45 -74 82 -74 44 0 68 17 89 64 l18 42 208 56 c114 31 241 64 281
73 72 17 74 17 88 -3 18 -27 76 -45 114 -37 128 28 123 216 -7 231 -23 3 -50
-1 -69 -11z"/>
<path d="M6605 9855 c-46 -45 -19 -115 43 -115 57 0 84 78 42 120 -27 27 -56
25 -85 -5z"/>
<path d="M5969 9850 c-42 -4 -102 -11 -132 -14 l-56 -7 6 -34 c8 -53 -5 -101
-38 -136 -34 -36 -38 -30 63 -96 32 -21 58 -41 58 -44 0 -3 -37 -17 -82 -29
-214 -60 -382 -142 -645 -313 -68 -43 -123 -83 -123 -87 0 -7 178 -23 502 -43
l186 -12 7 44 c20 132 120 221 250 221 31 0 72 -7 93 -16 l37 -15 95 98 c52
54 153 160 223 235 113 120 127 139 118 157 -6 11 -11 31 -11 45 0 14 -3 26
-7 26 -5 0 -62 7 -128 15 -126 15 -289 17 -416 5z"/>
<path d="M6844 9783 c-69 -4 -71 -4 -87 -38 -22 -45 -68 -69 -123 -62 l-43 4
-88 -91 c-103 -107 -252 -272 -306 -338 l-38 -47 22 -30 22 -29 166 58 c91 32
225 79 296 105 216 77 437 156 493 175 29 10 55 19 57 21 1 2 8 46 14 96 6 51
16 104 21 118 6 15 10 35 10 46 0 18 -8 19 -172 17 -95 -1 -205 -4 -244 -5z"/>
<path d="M8056 9674 c-20 -41 -50 -95 -67 -119 l-32 -44 154 -168 c85 -92 255
-282 379 -421 l225 -253 28 -177 c15 -97 34 -202 41 -232 7 -30 98 -253 201
-495 102 -242 247 -584 320 -759 l134 -320 -73 -76 c-125 -131 -225 -286 -283
-440 l-32 -85 -43 -7 c-24 -4 -57 -10 -74 -13 l-32 -5 -38 161 -39 161 -124
146 c-68 81 -225 269 -348 418 l-224 271 -47 7 c-26 4 -150 20 -277 36 -266
34 -345 54 -471 116 -405 199 -565 672 -383 1131 16 41 41 97 55 125 14 27 23
52 21 55 -3 2 -31 -18 -63 -45 -266 -225 -453 -537 -511 -857 -25 -136 -22
-371 6 -505 64 -304 193 -565 422 -850 77 -97 497 -525 506 -516 2 2 -13 32
-33 66 -199 340 -308 745 -261 968 13 58 63 192 72 192 1 0 40 -18 86 -39 134
-63 358 -121 463 -121 28 0 64 -29 272 -222 437 -405 429 -398 447 -453 13
-40 14 -62 7 -110 -5 -33 -13 -94 -16 -136 l-7 -75 89 -70 c166 -131 237 -184
248 -184 5 0 132 21 280 46 178 31 277 52 289 62 23 20 81 132 257 495 77 158
140 295 140 305 0 22 -52 149 -414 1018 l-296 711 -31 204 c-17 112 -37 213
-44 224 -16 24 -422 486 -666 757 l-177 197 -36 -75z"/>
<path d="M4323 9720 c-64 -26 -51 -119 18 -135 40 -10 87 34 81 75 -4 29 -43
71 -66 69 -6 0 -21 -4 -33 -9z"/>
<path d="M7180 9410 c-14 -5 -196 -65 -405 -134 -209 -69 -420 -141 -470 -160
l-90 -34 -7 -56 c-20 -154 -143 -240 -308 -214 -44 7 -45 7 -75 -35 -102 -146
-319 -490 -404 -639 l-32 -58 22 -22 c79 -83 78 -236 -3 -324 -19 -21 -19 -22
40 -120 32 -55 110 -186 172 -291 108 -185 114 -193 144 -193 43 0 89 -31 109
-73 19 -40 21 -65 7 -102 -9 -24 -4 -33 78 -118 179 -189 585 -662 666 -779
14 -19 19 -20 60 -9 74 18 139 -1 196 -58 60 -60 78 -123 61 -209 l-12 -57
178 -180 c226 -229 402 -411 528 -547 l100 -108 45 16 c31 11 63 14 102 10
l57 -6 -16 52 c-61 208 -155 394 -330 654 -70 105 -81 116 -206 210 -263 197
-514 427 -664 607 -304 365 -459 797 -423 1179 22 234 71 394 193 632 45 89
103 211 130 271 103 240 318 576 511 800 88 102 90 105 80 104 -5 0 -20 -4
-34 -9z"/>
<path d="M3733 9344 c-15 -24 -15 -29 -2 -53 28 -49 109 -32 109 24 0 54 -77
75 -107 29z"/>
<path d="M5892 9203 c-18 -9 -45 -32 -60 -51 -36 -47 -39 -145 -6 -188 34 -46
70 -67 123 -72 175 -16 246 231 87 307 -51 25 -99 26 -144 4z"/>
<path d="M4534 9146 c-19 -19 -34 -44 -34 -56 0 -25 -23 -36 -188 -86 l-119
-35 -31 30 c-34 34 -67 39 -111 16 -57 -29 -65 -115 -14 -155 40 -32 95 -27
127 11 14 17 26 41 26 53 0 21 12 25 156 59 l156 38 34 -31 c50 -43 114 -39
154 11 15 19 17 18 105 -6 132 -37 264 -55 406 -55 110 0 188 7 393 36 68 10
37 19 -89 28 -83 6 -310 26 -455 42 -354 36 -329 31 -345 70 -15 37 -59 64
-106 64 -22 0 -41 -10 -65 -34z"/>
<path d="M3208 8989 c-46 -26 5 -104 51 -79 14 7 21 21 21 38 0 46 -32 65 -72
41z"/>
<path d="M5570 8872 c-80 -37 -271 -134 -425 -214 -279 -146 -442 -225 -449
-217 -2 2 -7 14 -10 26 -9 27 26 47 439 254 165 83 289 148 275 144 -14 -4
-128 -52 -255 -107 -453 -197 -484 -208 -540 -202 -66 8 -114 -22 -133 -83
-35 -110 86 -192 181 -122 l28 21 42 -28 c23 -15 110 -78 194 -140 l151 -114
48 27 c49 27 121 36 176 21 25 -8 30 -1 139 170 62 97 168 262 236 365 l122
189 -26 39 c-14 21 -31 39 -37 39 -6 0 -76 -31 -156 -68z"/>
<path d="M3667 8682 c-39 -43 6 -108 58 -84 48 22 28 102 -25 102 -9 0 -24 -8
-33 -18z"/>
<path d="M2762 8524 c-27 -19 -28 -55 -2 -79 40 -36 102 11 77 60 -19 38 -41
43 -75 19z"/>
<path d="M8026 8458 c67 -69 83 -93 97 -139 39 -128 117 -201 267 -250 68 -22
111 -43 153 -75 33 -25 61 -44 63 -41 9 8 -107 344 -123 359 -52 46 -210 115
-453 199 l-85 29 81 -82z"/>
<path d="M3232 8427 c-13 -13 -22 -36 -22 -53 0 -63 86 -98 130 -54 l20 20
198 -71 c289 -105 278 -100 285 -146 17 -107 165 -125 212 -27 8 18 15 39 15
47 0 9 4 18 8 21 16 10 251 35 391 42 l145 6 -33 -43 c-74 -101 -180 -216
-263 -285 -215 -179 -384 -265 -546 -278 -81 -6 -84 -6 -104 19 -47 60 -119
68 -177 20 -16 -14 -33 -25 -39 -25 -13 0 -129 49 -289 122 -123 56 -133 63
-133 87 0 32 -31 68 -65 77 -32 8 -73 -18 -81 -53 -20 -77 66 -131 122 -76 14
14 35 6 230 -91 163 -80 215 -110 212 -122 -5 -27 -345 -171 -362 -154 -15 15
-62 12 -75 -4 -16 -19 -10 -66 10 -79 28 -18 69 0 75 33 5 25 15 33 63 51 91
34 283 99 291 99 5 0 12 -9 15 -21 9 -28 63 -59 104 -59 44 0 95 32 114 73
l16 32 163 1 c120 0 176 4 213 16 28 9 57 16 65 16 78 -1 167 19 265 59 61 25
214 87 340 138 l230 93 6 63 c3 35 10 73 17 85 10 19 -2 31 -136 141 -182 148
-186 151 -211 136 -60 -37 -149 -17 -201 45 l-29 36 -183 -82 -183 -81 -25 24
c-47 45 -105 45 -158 0 l-30 -25 -103 30 c-203 60 -379 122 -378 133 9 76 -78
118 -129 64z"/>
<path d="M5140 8041 c-54 -28 -82 -84 -77 -154 6 -95 63 -147 162 -147 59 0
106 25 135 72 25 42 26 120 2 168 -37 75 -142 104 -222 61z"/>
<path d="M2436 8035 c-9 -9 -16 -20 -16 -25 0 -15 32 -41 48 -38 24 5 39 35
26 56 -15 23 -38 26 -58 7z"/>
<path d="M4845 7741 c-111 -42 -350 -133 -558 -213 -58 -23 -58 -23 -52 -57 7
-35 -10 -91 -27 -91 -19 0 16 -32 112 -105 52 -40 119 -92 148 -117 l54 -44
48 24 c46 22 100 28 174 19 23 -2 35 18 202 331 l114 214 -32 44 c-17 24 -36
44 -42 44 -6 -1 -69 -23 -141 -49z"/>
<path d="M5122 7656 c-12 -15 -132 -237 -220 -405 l-70 -134 35 -45 c19 -25
37 -58 40 -75 l6 -30 76 6 c238 20 448 36 533 42 l97 7 20 39 20 39 -80 142
c-45 79 -120 208 -166 286 -75 127 -87 143 -106 138 -52 -14 -95 -17 -134 -8
-30 7 -45 6 -51 -2z"/>
<path d="M2296 7494 c-19 -18 -20 -28 -6 -55 11 -19 45 -25 66 -11 19 13 23
39 8 61 -18 25 -46 27 -68 5z"/>
<path d="M4081 7486 c-29 -31 -22 -68 15 -93 23 -15 29 -15 52 -2 42 23 49 43
29 83 -13 29 -22 36 -45 36 -17 0 -38 -10 -51 -24z"/>
<path d="M4140 7300 c-19 -10 -71 -49 -115 -87 -45 -37 -133 -110 -197 -162
l-116 -93 24 -46 c28 -52 30 -79 10 -126 l-14 -34 91 -24 c76 -19 117 -23 242
-23 l150 0 -122 -160 c-155 -203 -188 -239 -211 -229 -63 28 -140 7 -167 -46
-17 -33 -20 -102 -5 -130 8 -15 -6 -38 -83 -133 -147 -181 -147 -181 -160
-168 -15 15 -72 14 -106 -3 -92 -48 -51 -196 54 -196 83 0 121 70 90 165 -5
17 18 47 115 152 l122 131 52 -5 c58 -6 104 11 130 49 21 29 20 100 0 140 -15
29 -15 31 13 60 15 17 111 105 213 196 102 91 213 191 246 222 l61 57 -15 60
c-15 57 -15 63 5 123 l20 62 -81 77 c-98 93 -205 191 -208 191 -2 -1 -19 -9
-38 -20z"/>
<path d="M2702 7218 c-20 -20 -15 -76 9 -88 52 -28 106 28 74 76 -17 26 -62
33 -83 12z"/>
<path d="M1780 7125 c-26 -31 13 -82 44 -56 19 16 21 42 4 59 -16 16 -33 15
-48 -3z"/>
<path d="M4624 7079 c-42 -12 -92 -64 -106 -110 -22 -77 15 -158 89 -191 110
-49 223 26 223 147 0 66 -29 112 -90 143 -47 24 -67 25 -116 11z"/>
<path d="M5717 7058 c-9 -7 -21 -26 -27 -42 -15 -40 13 -80 59 -84 43 -4 71
21 71 65 0 58 -60 93 -103 61z"/>
<path d="M3510 6969 c-64 -26 -108 -100 -96 -164 6 -32 4 -35 -76 -93 -145
-103 -250 -172 -264 -172 -7 0 -16 5 -19 10 -11 18 -91 11 -118 -10 -14 -11
-30 -20 -37 -20 -7 0 -82 27 -168 60 -85 33 -157 59 -159 57 -2 -2 72 -35 164
-74 129 -54 167 -74 165 -87 -8 -46 48 -106 99 -106 56 0 108 62 95 114 -5 22
7 33 148 125 198 129 197 129 231 103 67 -53 170 -26 206 52 24 52 23 80 -1
134 -29 63 -107 96 -170 71z"/>
<path d="M5405 6944 c-88 -7 -232 -19 -320 -26 l-159 -13 -19 -50 c-10 -28
-31 -66 -47 -86 l-29 -36 173 -344 174 -344 59 3 c93 6 140 -12 200 -73 36
-37 56 -68 66 -101 l13 -47 89 2 c49 1 92 4 95 6 6 4 552 24 708 26 86 1 104
4 109 18 7 24 31 74 44 92 15 20 -37 90 -287 389 -258 310 -445 516 -463 511
-9 -1 -37 -4 -63 -5 -39 -1 -52 4 -77 28 -17 16 -33 38 -37 48 -6 21 -2 21
-229 2z"/>
<path d="M2370 6750 c-45 -45 -11 -120 53 -120 21 0 41 8 51 19 23 25 23 76 1
101 -24 26 -79 26 -105 0z"/>
<path d="M4379 6638 c-68 -56 -171 -142 -229 -192 -58 -50 -121 -103 -140
-118 -33 -26 -34 -28 -22 -61 7 -18 12 -52 12 -75 0 -41 1 -42 34 -42 28 0 42
-9 85 -55 27 -31 65 -87 83 -125 31 -65 35 -69 67 -69 24 -1 42 -10 68 -36
l36 -36 317 7 318 7 11 36 c6 21 26 55 46 78 19 23 35 46 35 52 0 6 -75 161
-166 345 l-167 335 -67 -6 c-60 -5 -74 -3 -126 23 -33 15 -61 29 -65 31 -3 2
-61 -43 -130 -99z"/>
<path d="M2530 6650 c8 -5 20 -10 25 -10 6 0 3 5 -5 10 -8 5 -19 10 -25 10 -5
0 -3 -5 5 -10z"/>
<path d="M2034 6266 c-11 -28 1 -51 25 -51 32 0 49 28 32 49 -17 20 -50 21
-57 2z"/>
<path d="M2675 5960 c-24 -27 -13 -68 22 -76 34 -9 57 6 61 40 6 53 -47 76
-83 36z"/>
<path d="M5185 5950 c-144 -72 -112 -291 46 -316 121 -20 225 99 189 213 -33
103 -141 150 -235 103z"/>
<path d="M6674 5960 c-11 -4 -33 -22 -47 -40 -50 -59 -31 -172 34 -205 69 -36
155 -11 190 55 50 93 -13 201 -116 199 -22 0 -49 -4 -61 -9z"/>
<path d="M4220 5830 c-24 -24 -25 -48 -4 -78 19 -27 64 -29 87 -4 52 58 -28
137 -83 82z"/>
<path d="M5845 5778 c-170 -5 -316 -10 -322 -13 -7 -2 -13 -11 -13 -20 0 -8
-10 -35 -21 -60 l-21 -45 36 -43 c19 -23 156 -165 304 -316 261 -267 268 -274
292 -261 14 8 52 14 85 14 l59 1 54 94 c29 52 105 193 169 314 96 182 114 222
104 236 -6 9 -22 37 -34 63 l-22 48 -180 -2 c-99 -1 -319 -5 -490 -10z"/>
<path d="M4361 5746 c-14 -35 -59 -66 -96 -66 -29 0 -34 -4 -50 -47 -27 -73
-93 -200 -141 -275 -42 -66 -43 -66 -81 -61 -46 6 -76 -20 -76 -68 0 -58 60
-85 107 -48 23 18 27 28 24 57 l-4 34 90 41 c50 23 123 58 163 78 l72 38 14
-22 c31 -47 135 -159 199 -216 l67 -59 38 19 c25 13 54 19 83 17 l45 -2 134
221 133 222 -22 31 c-12 18 -31 53 -40 78 l-18 47 -316 3 -316 2 -9 -24z"/>
<path d="M6820 5638 c-27 -14 -51 -18 -104 -16 l-68 3 -55 -100 c-30 -55 -106
-199 -168 -319 l-114 -219 24 -29 c13 -16 27 -44 31 -63 7 -41 -2 -39 239 -55
94 -6 285 -25 425 -40 140 -16 316 -36 390 -45 74 -8 147 -17 161 -19 24 -5
30 1 52 46 l26 52 -21 25 c-102 131 -754 803 -775 800 -4 -1 -24 -10 -43 -21z"/>
<path d="M5366 5567 c-52 -27 -121 -32 -174 -14 l-42 15 -78 -127 c-43 -69
-102 -168 -131 -219 l-53 -93 23 -47 c13 -26 24 -48 25 -49 0 -2 90 -12 200
-23 109 -11 217 -22 239 -25 128 -16 564 -76 587 -81 22 -4 29 0 41 23 l15 28
-148 155 c-82 85 -220 228 -307 316 l-158 161 -39 -20z"/>
<path d="M3078 5349 c-22 -12 -23 -52 -3 -69 12 -10 21 -10 40 -2 29 13 33 43
9 66 -18 19 -23 19 -46 5z"/>
<path d="M4713 5095 c-37 -16 -63 -60 -63 -106 0 -22 10 -41 34 -65 44 -44 99
-47 145 -8 l31 26 82 -28 c300 -98 693 -290 953 -464 449 -301 789 -686 937
-1063 l43 -109 7 83 c3 46 6 116 7 156 l1 71 -35 21 c-41 24 -74 87 -75 142 0
20 11 56 24 80 l23 44 -65 95 c-87 125 -341 482 -426 598 l-68 93 -36 -8
c-117 -24 -216 32 -243 137 l-12 47 -196 27 c-108 15 -331 47 -496 71 -165 24
-326 46 -357 50 -52 6 -57 9 -63 34 -8 36 -52 77 -90 85 -17 3 -44 -1 -62 -9z"/>
<path d="M6118 4945 c-86 -48 -72 -188 20 -216 121 -36 209 114 118 200 -31
30 -100 37 -138 16z"/>
<path d="M7784 4816 c-61 -27 -102 -111 -88 -183 9 -50 66 -110 117 -124 77
-21 160 24 192 103 52 131 -88 261 -221 204z"/>
<path d="M6350 4755 l-22 -45 44 -57 c39 -51 132 -179 440 -606 l87 -121 53
-1 c29 0 65 -4 79 -8 24 -8 46 12 321 298 l296 307 -18 42 c-10 22 -20 55 -23
71 -3 28 -7 30 -63 38 -99 12 -401 47 -544 62 -74 8 -234 26 -355 40 -289 33
-269 34 -295 -20z"/>
<path d="M7554 4308 c-83 -84 -217 -222 -297 -307 l-145 -153 15 -36 c10 -25
13 -53 9 -87 -5 -49 -4 -53 30 -86 57 -54 112 -146 136 -223 17 -55 22 -97 23
-188 0 -65 1 -118 2 -118 8 0 117 70 163 106 72 54 187 176 238 251 95 140
180 346 222 538 29 134 53 445 35 445 -4 0 -20 -8 -38 -17 -47 -24 -141 -22
-194 5 -23 12 -44 22 -45 22 -2 0 -71 -69 -154 -152z"/>
<path d="M6897 3839 c-65 -50 -53 -155 20 -185 87 -37 168 37 142 131 -19 70
-106 99 -162 54z"/>
<path d="M4872 2832 c-93 -33 -142 -98 -142 -186 0 -119 59 -168 255 -211 101
-22 133 -38 141 -72 15 -59 -42 -106 -130 -106 -76 0 -112 11 -161 49 -25 19
-47 34 -49 34 -2 0 -21 -21 -42 -47 l-38 -46 39 -34 c109 -94 354 -98 455 -7
48 43 64 88 58 165 -7 103 -56 142 -228 185 -57 13 -116 32 -131 40 -36 18
-47 56 -25 90 24 36 61 47 139 41 56 -4 77 -10 113 -35 l43 -31 38 46 38 46
-34 28 c-74 62 -239 86 -339 51z"/>
<path d="M2498 2832 l-48 -3 0 -340 0 -339 155 0 c168 0 235 10 306 46 62 31
133 112 156 177 20 60 23 172 5 233 -28 97 -111 177 -217 210 -48 15 -241 24
-357 16z m337 -139 c53 -28 81 -59 100 -112 22 -63 19 -127 -9 -188 -41 -88
-117 -122 -268 -123 l-78 0 0 226 0 227 108 -5 c82 -4 116 -9 147 -25z"/>
<path d="M3698 2833 l-38 -4 0 -340 0 -339 250 0 250 0 0 60 0 60 -182 2 -183
3 -3 83 -3 82 161 0 160 0 0 60 0 59 -157 3 -158 3 0 75 0 75 183 3 183 2 -3
58 -3 57 -210 1 c-115 1 -227 -1 -247 -3z"/>
<path d="M5770 2780 l0 -60 105 0 105 0 2 -177 c1 -98 1 -194 0 -213 -1 -19 1
-68 4 -108 l6 -73 61 3 62 3 3 283 2 282 105 0 105 0 0 50 c0 28 0 53 0 58 0
4 -126 8 -280 10 l-280 2 0 -60z"/>
<path d="M6846 2833 c-3 -4 -6 -159 -6 -345 l0 -338 65 0 64 0 3 123 3 122 66
3 66 3 79 -126 78 -125 73 0 c40 0 73 3 73 6 0 3 -36 61 -80 130 -44 69 -80
127 -80 130 0 2 6 4 13 4 24 0 96 58 114 92 23 45 24 171 0 215 -20 37 -67 75
-117 93 -36 13 -402 24 -414 13z m390 -146 c18 -21 24 -40 24 -73 0 -83 -52
-109 -210 -102 l-75 3 -3 89 c-2 49 0 96 3 104 4 11 28 13 121 10 113 -3 116
-4 140 -31z"/>
<path d="M7988 2832 l-48 -3 0 -340 0 -339 65 0 65 0 0 344 c0 322 -1 345 -17
343 -10 -1 -39 -3 -65 -5z"/>
<path d="M8673 2833 l-33 -4 0 -340 0 -339 250 0 250 0 2 38 c1 20 2 46 2 57
1 19 -7 20 -184 25 l-185 5 -3 83 -3 82 113 2 c62 1 134 3 161 3 l47 0 0 57 0
57 -157 3 -158 3 0 75 0 75 183 3 182 2 0 60 0 60 -217 -2 c-120 0 -233 -3
-250 -5z"/>
<path d="M9707 2834 c-4 -4 -7 -160 -7 -346 l0 -338 65 0 65 0 0 125 0 125 68
0 67 -1 76 -122 76 -122 77 -3 c42 -2 76 -1 76 2 0 3 -36 62 -81 131 -44 70
-79 127 -77 128 65 33 87 52 112 91 24 39 29 57 30 114 0 95 -31 149 -111 189
-56 27 -63 28 -244 31 -102 1 -188 -1 -192 -4z m363 -129 c59 -31 69 -104 21
-157 l-29 -33 -114 0 -113 0 -3 89 c-2 49 -1 95 2 103 8 20 197 18 236 -2z"/>
</g>
</svg>
